HIERARCHY
ROOT hip
{
  OFFSET 0.00112043 5.09927 -9.65472
  CHANNELS 6 Xposition Yposition Zposition Zrotation Xrotation Yrotation
  JOINT abdomen
  {
    OFFSET 0 -1.186 -1.5018
    CHANNELS 3 Zrotation Xrotation Yrotation
    JOINT abdomen2
    {
      OFFSET 0 9.964 0.2134
      CHANNELS 3 Zrotation Xrotation Yrotation
      JOINT chest
      {
        OFFSET 0 13.134 -3.2573
        CHANNELS 3 Zrotation Xrotation Yrotation
        JOINT neck
        {
          OFFSET 0 20.686 -1.6905
          CHANNELS 3 Zrotation Xrotation Yrotation
          JOINT head
          {
            OFFSET 0 7.238 -0.1237
            CHANNELS 3 Zrotation Xrotation Yrotation
            End Site
            {
              OFFSET 0 0 0
            }
          }
        }
        JOINT lCollar
        {
          OFFSET 1.7069 20.075 5.0056
          CHANNELS 3 Zrotation Xrotation Yrotation
          JOINT lShldr
          {
            OFFSET 13.6458 -0.047 -4.849
            CHANNELS 3 Zrotation Xrotation Yrotation
            JOINT lForeArm
            {
              OFFSET 28.3255 -0.9759 2.2888
              CHANNELS 3 Zrotation Xrotation Yrotation
              JOINT lHand
              {
                OFFSET 22.1583 -0.53 10.8316
                CHANNELS 3 Zrotation Xrotation Yrotation
                JOINT lThumb1
                {
                  OFFSET 0.786 0.112 2.5817
                  CHANNELS 3 Zrotation Xrotation Yrotation
                  JOINT lThumb2
                  {
                    OFFSET 0.3601 -0.878 4.2331
                    CHANNELS 3 Zrotation Xrotation Yrotation
                    JOINT lThumb2_End
                    {
                      OFFSET 1.8127 -1.216 2.2227
                      CHANNELS 3 Zrotation Xrotation Yrotation
                      End Site
                      {
                        OFFSET 0.0181 -0.0122 0.0222
                      }
                    }
                  }
                }
                JOINT lCarpal1
                {
                  OFFSET 0.9571 1.114 1.7695
                  CHANNELS 3 Zrotation Xrotation Yrotation
                  JOINT lIndex1
                  {
                    OFFSET 4.1246 0.487 4.1451
                    CHANNELS 3 Zrotation Xrotation Yrotation
                    JOINT lIndex2
                    {
                      OFFSET 3.4052 -1.454 2.7682
                      CHANNELS 3 Zrotation Xrotation Yrotation
                      JOINT lIndex2_End
                      {
                        OFFSET 1.4531 -1.795 1.2713
                        CHANNELS 3 Zrotation Xrotation Yrotation
                        End Site
                        {
                          OFFSET 0.0145 -0.0179 0.0127
                        }
                      }
                    }
                  }
                  JOINT lMid1
                  {
                    OFFSET 5.6954 0.21 2.1184
                    CHANNELS 3 Zrotation Xrotation Yrotation
                    JOINT lMid2
                    {
                      OFFSET 3.9766 -1.54 2.3863
                      CHANNELS 3 Zrotation Xrotation Yrotation
                      JOINT lMid2_End
                      {
                        OFFSET 1.4042 -1.926 1.125
                        CHANNELS 3 Zrotation Xrotation Yrotation
                        End Site
                        {
                          OFFSET 0.014 -0.0193 0.0113
                        }
                      }
                    }
                  }
                }
                JOINT lCarpal2
                {
                  OFFSET 2.0956 0.66 -0.3894
                  CHANNELS 3 Zrotation Xrotation Yrotation
                  JOINT lRing1
                  {
                    OFFSET 5.0395 -0.09 2.4971
                    CHANNELS 3 Zrotation Xrotation Yrotation
                    JOINT lRing2
                    {
                      OFFSET 3.7921 -1.552 1.4806
                      CHANNELS 3 Zrotation Xrotation Yrotation
                      JOINT lRing2_End
                      {
                        OFFSET 1.4655 -1.808 0.9609
                        CHANNELS 3 Zrotation Xrotation Yrotation
                        End Site
                        {
                          OFFSET 0.0147 -0.0181 0.0096
                        }
                      }
                    }
                  }
                  JOINT lPinky1
                  {
                    OFFSET 4.9141 -1.269 0.3591
                    CHANNELS 3 Zrotation Xrotation Yrotation
                    JOINT lPinky2
                    {
                      OFFSET 3.1477 -1.685 0.8462
                      CHANNELS 3 Zrotation Xrotation Yrotation
                      JOINT lPinky2_End
                      {
                        OFFSET 0.8055 -1.585 0.7955
                        CHANNELS 3 Zrotation Xrotation Yrotation
                        End Site
                        {
                          OFFSET 0.0081 -0.0158 0.008
                        }
                      }
                    }
                  }
                }
              }
            }
          }
        }
        JOINT rCollar
        {
          OFFSET -1.7069 20.075 5.0056
          CHANNELS 3 Zrotation Xrotation Yrotation
          JOINT rShldr
          {
            OFFSET -13.6458 -0.047 -4.849
            CHANNELS 3 Zrotation Xrotation Yrotation
            JOINT rForeArm
            {
              OFFSET -28.3255 -0.9759 2.2888
              CHANNELS 3 Zrotation Xrotation Yrotation
              JOINT rHand
              {
                OFFSET -22.1583 -0.53 10.8316
                CHANNELS 3 Zrotation Xrotation Yrotation
                JOINT rThumb1
                {
                  OFFSET -0.786 0.112 2.5817
                  CHANNELS 3 Zrotation Xrotation Yrotation
                  JOINT rThumb2
                  {
                    OFFSET -0.3601 -0.878 4.2331
                    CHANNELS 3 Zrotation Xrotation Yrotation
                    JOINT rThumb2_End
                    {
                      OFFSET -1.8127 -1.216 2.2227
                      CHANNELS 3 Zrotation Xrotation Yrotation
                      End Site
                      {
                        OFFSET -0.0181 -0.0122 0.0222
                      }
                    }
                  }
                }
                JOINT rCarpal1
                {
                  OFFSET -0.9571 1.114 1.7695
                  CHANNELS 3 Zrotation Xrotation Yrotation
                  JOINT rIndex1
                  {
                    OFFSET -4.1246 0.487 4.1451
                    CHANNELS 3 Zrotation Xrotation Yrotation
                    JOINT rIndex2
                    {
                      OFFSET -3.4052 -1.454 2.7682
                      CHANNELS 3 Zrotation Xrotation Yrotation
                      JOINT rIndex2_End
                      {
                        OFFSET -1.4531 -1.795 1.2713
                        CHANNELS 3 Zrotation Xrotation Yrotation
                        End Site
                        {
                          OFFSET -0.0145 -0.018 0.0127
                        }
                      }
                    }
                  }
                  JOINT rMid1
                  {
                    OFFSET -5.6954 0.21 2.1184
                    CHANNELS 3 Zrotation Xrotation Yrotation
                    JOINT rMid2
                    {
                      OFFSET -3.9766 -1.54 2.3863
                      CHANNELS 3 Zrotation Xrotation Yrotation
                      JOINT rMid2_End
                      {
                        OFFSET -1.4042 -1.926 1.125
                        CHANNELS 3 Zrotation Xrotation Yrotation
                        End Site
                        {
                          OFFSET -0.014 -0.0193 0.0113
                        }
                      }
                    }
                  }
                }
                JOINT rCarpal2
                {
                  OFFSET -2.0956 0.66 -0.3894
                  CHANNELS 3 Zrotation Xrotation Yrotation
                  JOINT rRing1
                  {
                    OFFSET -5.0395 -0.09 2.4971
                    CHANNELS 3 Zrotation Xrotation Yrotation
                    JOINT rRing2
                    {
                      OFFSET -3.7921 -1.552 1.4806
                      CHANNELS 3 Zrotation Xrotation Yrotation
                      JOINT rRing2_End
                      {
                        OFFSET -1.4655 -1.808 0.9609
                        CHANNELS 3 Zrotation Xrotation Yrotation
                        End Site
                        {
                          OFFSET -0.0147 -0.0181 0.0096
                        }
                      }
                    }
                  }
                  JOINT rPinky1
                  {
                    OFFSET -4.9141 -1.269 0.3592
                    CHANNELS 3 Zrotation Xrotation Yrotation
                    JOINT rPinky2
                    {
                      OFFSET -3.1477 -1.685 0.8462
                      CHANNELS 3 Zrotation Xrotation Yrotation
                      JOINT rPinky2_End
                      {
                        OFFSET -0.8055 -1.585 0.7955
                        CHANNELS 3 Zrotation Xrotation Yrotation
                        End Site
                        {
                          OFFSET -0.0081 -0.0158 0.008
                        }
                      }
                    }
                  }
                }
              }
            }
          }
        }
      }
    }
  }
  JOINT lThigh
  {
    OFFSET 8.367 -8.2066 0.5982
    CHANNELS 3 Zrotation Xrotation Yrotation
    JOINT lShin
    {
      OFFSET 2.1923 -43.463 -0.4932
      CHANNELS 3 Zrotation Xrotation Yrotation
      JOINT lFoot
      {
        OFFSET 0.7333 -45.8593 -2.6451
        CHANNELS 3 Zrotation Xrotation Yrotation
        End Site
        {
          OFFSET 2.6618 -4.2699 12.3931
        }
      }
    }
  }
  JOINT rThigh
  {
    OFFSET -8.367 -8.2066 0.5982
    CHANNELS 3 Zrotation Xrotation Yrotation
    JOINT rShin
    {
      OFFSET -2.1923 -43.463 -0.4931
      CHANNELS 3 Zrotation Xrotation Yrotation
      JOINT rFoot
      {
        OFFSET -0.7333 -45.8593 -2.6451
        CHANNELS 3 Zrotation Xrotation Yrotation
        End Site
        {
          OFFSET -2.6618 -4.2699 12.3931
        }
      }
    }
  }
}
MOTION
Frames:	6
Frame Time:	0.0333333
0 91.7903 2.51682 0 0 -0 0 0 -0 0 0 -0 0 0 -0 0 0 -0 0 0 -0 0 0 -0 1.66051 0.0835086 5.75766 -0.0175111 0.895433 15.7816 7.95139e-016 -1.98785e-016 -0 5.46658e-016 -3.97569e-016 -0 5.96354e-016 0 -0 3.97569e-016 1.98785e-016 9.54166e-015 1.49089e-016 -3.97569e-016 -0 6.4605e-016 0 3.18055e-015 5.96354e-016 0 3.18055e-015 8.94531e-016 -1.98785e-016 6.36111e-015 6.4605e-016 0 3.18055e-015 5.96354e-016 0 3.18055e-015 8.94531e-016 -1.98785e-016 6.36111e-015 1.49089e-016 -3.97569e-016 -0 6.4605e-016 0 3.18055e-015 5.96354e-016 0 3.18055e-015 8.94531e-016 -1.98785e-016 6.36111e-015 6.4605e-016 0 3.18055e-015 5.96354e-016 0 3.18055e-015 8.94531e-016 -1.98785e-016 6.36111e-015 0 0 -0 -1.4496 0.0636048 -5.0245 -1.74811 1.20616 -16.8394 -1.19271e-015 1.98785e-016 -3.18055e-015 -3.97569e-016 1.98785e-016 -3.18055e-015 -2.98177e-016 1.98785e-016 -3.18055e-015 -2.98177e-016 3.97569e-016 -0 4.96962e-016 0 -6.36111e-015 -9.93923e-017 3.97569e-016 -0 -8.94531e-016 5.96354e-016 -0 -3.97569e-016 3.97569e-016 -0 -9.93923e-017 3.97569e-016 -0 -8.94531e-016 5.96354e-016 -0 -3.97569e-016 3.97569e-016 -0 4.96962e-016 0 -6.36111e-015 -9.93923e-017 3.97569e-016 -0 -8.94531e-016 5.96354e-016 -0 -3.97569e-016 3.97569e-016 -0 -9.93923e-017 3.97569e-016 -0 -8.94531e-016 5.96354e-016 -0 -3.97569e-016 3.97569e-016 -0 -4.66111 -0.998717 0.12318 0.00986924 1.54847 0.176523 4.65186 -0.572283 -0.254274 4.66111 -0.998765 -0.123176 -0.00986867 1.54869 -0.176537 -4.65186 -0.572453 0.25427 
-2.05919 60.1635 -16.3827 -0 -6.59994 -0 0.0993418 10.5005 -0.0640576 0.216474 21.0008 -0.150916 0.216474 21.0007 -0.150916 0.358167 21.5015 -0.177909 3.37099 -4.86418 0.379337 9.16848 7.33969 -28.1845 -26.8119 -37.8142 -4.00025 30.5253 -6.19213 -75.3612 -9.92465 -19.177 -13.5241 -3.16511e-007 2.64712e-007 1.09389e-007 9.49534e-007 -7.94137e-007 -3.28166e-007 3.18055e-015 -3.57812e-015 -3.18055e-015 -3.18055e-015 4.37326e-015 7.95139e-016 -3.16511e-007 2.64712e-007 1.09389e-007 9.49534e-007 -7.94137e-007 -3.28166e-007 -4.96564e-032 -1.19271e-015 -2.38542e-015 -3.16511e-007 2.64712e-007 1.09389e-007 9.49534e-007 -7.94137e-007 -3.28166e-007 -4.96564e-032 -1.19271e-015 -2.38542e-015 -3.18055e-015 4.37326e-015 7.95139e-016 -3.16511e-007 2.64712e-007 1.09389e-007 9.49534e-007 -7.94137e-007 -3.28166e-007 -4.96564e-032 -1.19271e-015 -2.38542e-015 -3.16511e-007 2.64712e-007 1.09389e-007 9.49534e-007 -7.94137e-007 -3.28166e-007 -4.96564e-032 -1.19271e-015 -2.38542e-015 -8.38383 7.92111 26.9194 26.4408 -37.932 4.7253 -31.0118 -6.92649 73.7518 -1.46038 7.663 -18.337 -3.73853e-007 -5.13211e-007 -1.68694e-006 -0 -1.59028e-015 -0 2.20695e-032 3.97569e-016 -3.18055e-015 -1.59028e-015 -1.59028e-015 -0 -3.73853e-007 -5.13211e-007 -1.68694e-006 3.18055e-015 2.78299e-015 -6.36111e-015 1.59028e-015 0 -6.36111e-015 -3.73853e-007 -5.13211e-007 -1.68694e-006 3.18055e-015 2.78299e-015 -6.36111e-015 1.59028e-015 0 -6.36111e-015 -1.59028e-015 -1.59028e-015 -0 -3.73853e-007 -5.13211e-007 -1.68694e-006 3.18055e-015 2.78299e-015 -6.36111e-015 1.59028e-015 0 -6.36111e-015 -3.73853e-007 -5.13211e-007 -1.68694e-006 3.18055e-015 2.78299e-015 -6.36111e-015 1.59028e-015 0 -6.36111e-015 5.81701 -1.85319 8.30648 3.86173 67.5813 -6.61372 18.883 47.1579 -1.26216 -6.63883 -2.36393 -8.38013 -4.11882 67.757 6.92541 -19.4596 46.565 2.19065 
-2.99977 45.2443 -25.9548 -0 -9.90781 -0 0.158751 15.3719 -0.110023 0.370785 30.7433 -0.282419 0.370784 30.7433 -0.282419 0.569648 31.1173 -0.279869 4.91809 -7.94295 0.624034 15.6991 8.59007 -40.7906 -46.9176 -53.8103 -13.5889 31.3054 -40.0198 -103.522 -17.5918 -26.0944 -21.3275 -6.36111e-015 -1.43125e-014 3.18055e-015 -7.95139e-015 -1.11319e-014 6.36111e-015 -3.18055e-015 -6.36111e-015 -0 -6.36111e-015 -6.36111e-015 3.18055e-015 3.18055e-015 -9.54166e-015 1.90833e-014 1.59028e-015 -1.59028e-015 6.36111e-015 -1.59028e-015 -9.54166e-015 -3.18055e-015 3.18055e-015 -9.54166e-015 1.90833e-014 1.59028e-015 -1.59028e-015 6.36111e-015 -1.59028e-015 -9.54166e-015 -3.18055e-015 -6.36111e-015 -6.36111e-015 3.18055e-015 3.18055e-015 -9.54166e-015 1.90833e-014 1.59028e-015 -1.59028e-015 6.36111e-015 -1.59028e-015 -9.54166e-015 -3.18055e-015 3.18055e-015 -9.54166e-015 1.90833e-014 1.59028e-015 -1.59028e-015 6.36111e-015 -1.59028e-015 -9.54166e-015 -3.18055e-015 -14.7099 9.4424 39.0448 46.274 -53.9882 14.3236 -31.9202 -40.8593 101.171 -0.307702 10.8023 -27.0657 1.69682e-007 -1.27359e-007 -2.3361e-008 1.59028e-015 -1.98785e-015 3.18055e-015 1.69682e-007 -1.27359e-007 -2.3361e-008 1.59028e-015 0 -3.18055e-015 1.69682e-007 -1.27359e-007 -2.3361e-008 -3.18055e-015 -1.98785e-015 -3.18055e-015 1.69682e-007 -1.27359e-007 -2.3361e-008 1.69682e-007 -1.27359e-007 -2.3361e-008 -3.18055e-015 -1.98785e-015 -3.18055e-015 1.69682e-007 -1.27359e-007 -2.3361e-008 1.59028e-015 0 -3.18055e-015 1.69682e-007 -1.27359e-007 -2.3361e-008 -3.18055e-015 -1.98785e-015 -3.18055e-015 1.69682e-007 -1.27359e-007 -2.3361e-008 1.69682e-007 -1.27359e-007 -2.3361e-008 -3.18055e-015 -1.98785e-015 -3.18055e-015 1.69682e-007 -1.27359e-007 -2.3361e-008 10.7592 -2.57082 12.9395 139.597 79.8511 -141.739 27.4833 68.6495 -4.17162 -11.9641 -3.34636 -13.0509 -139.952 79.538 142.149 -29.2379 67.7277 6.29426 
-2.79003 48.5808 -24.1254 -0 -9.9237 -0 0.144483 14.6146 -0.101225 0.333957 29.2289 -0.255239 0.333956 29.2289 -0.255239 0.518587 28.8483 -0.253699 4.59532 -9.2381 0.729659 14.6834 7.11719 -37.2434 -41.7043 -50.3863 -10.8076 33.0544 -31.7682 -97.3341 -15.7756 -25.442 -18.9738 2.19514e-006 2.4525e-006 -3.83576e-006 -1.41537e-006 7.54629e-007 5.04043e-007 1.41537e-006 -7.54629e-007 -5.04043e-007 3.18055e-015 4.77083e-015 -0 2.19514e-006 2.4525e-006 -3.83576e-006 -1.41537e-006 7.54629e-007 5.04043e-007 1.41537e-006 -7.54629e-007 -5.04043e-007 2.19514e-006 2.4525e-006 -3.83576e-006 -1.41537e-006 7.54629e-007 5.04043e-007 1.41537e-006 -7.54629e-007 -5.04043e-007 3.18055e-015 4.77083e-015 -0 2.19514e-006 2.4525e-006 -3.83576e-006 -1.41537e-006 7.54629e-007 5.04043e-007 1.41537e-006 -7.54629e-007 -5.04043e-007 2.19514e-006 2.4525e-006 -3.83576e-006 -1.41537e-006 7.54629e-007 5.04043e-007 1.41537e-006 -7.54629e-007 -5.04043e-007 -13.8621 7.86624 35.7068 41.0923 -50.5612 11.5186 -33.5424 -32.561 95.218 -0.241415 9.57189 -25.8579 1.68428e-007 -1.30526e-007 -1.23675e-008 1.68428e-007 -1.30526e-007 -1.23675e-008 5.97908e-007 7.58038e-008 -2.51615e-008 -7.95139e-016 1.98785e-016 -1.59028e-015 1.68428e-007 -1.30526e-007 -1.23675e-008 1.68428e-007 -1.30526e-007 -1.23675e-008 5.97908e-007 7.58038e-008 -2.51615e-008 1.68428e-007 -1.30526e-007 -1.23675e-008 1.68428e-007 -1.30526e-007 -1.23675e-008 5.97908e-007 7.58038e-008 -2.51615e-008 -7.95139e-016 1.98785e-016 -1.59028e-015 1.68428e-007 -1.30526e-007 -1.23675e-008 1.68428e-007 -1.30526e-007 -1.23675e-008 5.97908e-007 7.58038e-008 -2.51615e-008 1.68428e-007 -1.30526e-007 -1.23675e-008 1.68428e-007 -1.30526e-007 -1.23675e-008 5.97908e-007 7.58038e-008 -2.51615e-008 9.72512 -1.91419 11.7567 101.19 84.6149 -103.599 25.4037 63.9259 -3.28974 -10.8247 -2.63755 -11.8302 -103.602 84.4209 106.069 -26.4719 62.9769 4.78059 
-2.78993 48.6112 -24.4016 -0 -10.5385 -0 0.144528 14.881 -0.103307 0.335992 29.7616 -0.261074 0.335992 29.7616 -0.261074 0.518033 28.7391 -0.252567 4.61848 -10.8642 0.862741 15.1066 6.06342 -36.6272 -41.7043 -50.3863 -10.8076 33.0521 -31.7711 -97.3452 -15.8281 -26.0491 -18.5682 9.54166e-015 7.95139e-015 -3.18055e-015 -1.41498e-006 7.561e-007 5.03254e-007 -6.36111e-015 -1.43125e-014 -9.54166e-015 6.36111e-015 7.95139e-015 -0 3.18055e-015 -9.54166e-015 -6.36111e-015 -1.41498e-006 7.561e-007 5.03254e-007 -6.36111e-015 -1.43125e-014 -9.54166e-015 3.18055e-015 -9.54166e-015 -6.36111e-015 -1.41498e-006 7.561e-007 5.03254e-007 -6.36111e-015 -1.43125e-014 -9.54166e-015 6.36111e-015 7.95139e-015 -0 3.18055e-015 -9.54166e-015 -6.36111e-015 -1.41498e-006 7.561e-007 5.03254e-007 -6.36111e-015 -1.43125e-014 -9.54166e-015 3.18055e-015 -9.54166e-015 -6.36111e-015 -1.41498e-006 7.561e-007 5.03254e-007 -6.36111e-015 -1.43125e-014 -9.54166e-015 -14.3898 6.77705 35.1739 41.0718 -50.5704 11.5051 -33.5399 -32.564 95.2286 0.0854387 9.11254 -26.465 9.69872e-008 -1.45487e-007 6.62166e-006 -5.97879e-007 -7.60864e-008 2.4767e-008 -4.3397e-007 4.06384e-007 -6.597e-006 1.59028e-015 -3.97569e-016 1.59028e-015 9.69872e-008 -1.45487e-007 6.62166e-006 -5.97879e-007 -7.60864e-008 2.4767e-008 -4.3397e-007 4.06384e-007 -6.597e-006 9.69872e-008 -1.45487e-007 6.62166e-006 -5.97879e-007 -7.60864e-008 2.4767e-008 -4.3397e-007 4.06384e-007 -6.597e-006 1.59028e-015 -3.97569e-016 1.59028e-015 9.69872e-008 -1.45487e-007 6.62166e-006 -5.97879e-007 -7.60864e-008 2.4767e-008 -4.3397e-007 4.06384e-007 -6.597e-006 9.69872e-008 -1.45487e-007 6.62166e-006 -5.97879e-007 -7.60864e-008 2.4767e-008 -4.3397e-007 4.06384e-007 -6.597e-006 9.77691 -1.54958 11.7191 101.146 84.6155 -103.553 25.6343 64.0105 -3.47598 -10.8609 -2.27911 -11.7706 -103.629 84.4202 106.095 -26.4718 62.9757 4.77943 
-2.78982 48.6411 -24.678 -0 -11.1535 -0 0.144541 15.1475 -0.105402 0.338024 30.2946 -0.266975 0.338024 30.2946 -0.266975 0.517492 28.6305 -0.251442 4.64574 -12.495 0.997667 15.5413 5.01229 -36.0032 -41.7043 -50.3863 -10.8076 33.0498 -31.7741 -97.3562 -15.8762 -26.6569 -18.1609 -1.41462e-006 7.57473e-007 5.02476e-007 -2.82925e-006 1.51495e-006 1.00495e-006 -1.41462e-006 7.57473e-007 5.02476e-007 3.18055e-015 -9.54166e-015 -3.18055e-015 -1.41462e-006 7.57473e-007 5.02476e-007 -2.82925e-006 1.51495e-006 1.00495e-006 -1.41462e-006 7.57473e-007 5.02476e-007 -1.41462e-006 7.57473e-007 5.02476e-007 -2.82925e-006 1.51495e-006 1.00495e-006 -1.41462e-006 7.57473e-007 5.02476e-007 3.18055e-015 -9.54166e-015 -3.18055e-015 -1.41462e-006 7.57473e-007 5.02476e-007 -2.82925e-006 1.51495e-006 1.00495e-006 -1.41462e-006 7.57473e-007 5.02476e-007 -1.41462e-006 7.57473e-007 5.02476e-007 -2.82925e-006 1.51495e-006 1.00495e-006 -1.41462e-006 7.57473e-007 5.02476e-007 -14.9276 5.69067 34.6311 41.0513 -50.5796 11.4916 -33.5374 -32.5669 95.2393 0.407163 8.64946 -27.0691 7.95139e-016 2.5842e-015 -1.59028e-015 7.95139e-016 4.17448e-015 -1.59028e-015 1.59028e-015 5.1684e-015 -1.59028e-015 7.95139e-016 -5.96354e-016 -1.59028e-015 -7.95139e-016 1.23246e-014 -1.59028e-015 0 3.18055e-015 -0 -5.51738e-032 1.98785e-015 1.59028e-015 -7.95139e-016 1.23246e-014 -1.59028e-015 0 3.18055e-015 -0 -5.51738e-032 1.98785e-015 1.59028e-015 7.95139e-016 -5.96354e-016 -1.59028e-015 -7.95139e-016 1.23246e-014 -1.59028e-015 0 3.18055e-015 -0 -5.51738e-032 1.98785e-015 1.59028e-015 -7.95139e-016 1.23246e-014 -1.59028e-015 0 3.18055e-015 -0 -5.51738e-032 1.98785e-015 1.59028e-015 9.82901 -1.18469 11.6812 101.101 84.6161 -103.505 25.8662 64.0946 -3.66347 -10.8974 -1.92097 -11.7108 -103.66 84.4195 106.124 -26.4716 62.9745 4.77825 
